<svg xmlns="http://www.w3.org/2000/svg" width="32" height="32" viewBox="0 0 24 24" fill="none" stroke="#2C2C2C" stroke-width="2" stroke-linecap="round" stroke-linejoin="round">
  <rect x="2" y="4" width="20" height="16" rx="3" fill="#D4AF37" fill-opacity="0.15" stroke="none"/>
  <path d="M2 3h6a4 4 0 0 1 4 4v14a3 3 0 0 0-3-3H2z" fill="#D4AF37" fill-opacity="0.3"/>
  <path d="M22 3h-6a4 4 0 0 0-4 4v14a3 3 0 0 1 3-3h7z" fill="#D4AF37" fill-opacity="0.3"/>
  <path d="M2 3h6a4 4 0 0 1 4 4v14a3 3 0 0 0-3-3H2z" stroke="#2C2C2C" fill="none"/>
  <path d="M22 3h-6a4 4 0 0 0-4 4v14a3 3 0 0 1 3-3h7z" stroke="#2C2C2C" fill="none"/>
</svg>
